<?xml version="1.0" standalone="no"?>
<!DOCTYPE svg PUBLIC "-//W3C//DTD SVG 20010904//EN"
 "http://www.w3.org/TR/2001/REC-SVG-20010904/DTD/svg10.dtd">
<svg version="1.0" xmlns="http://www.w3.org/2000/svg"
 width="500.000000pt" height="500.000000pt" viewBox="0 0 500.000000 500.000000"
 preserveAspectRatio="xMidYMid meet">

<g transform="translate(0.000000,500.000000) scale(0.100000,-0.100000)"
fill="#000000" stroke="none">
<path d="M1335 3841 c-153 -44 -247 -133 -303 -284 -21 -55 -22 -74 -22 -397
0 -314 -1 -343 -20 -392 -29 -78 -141 -178 -199 -178 -32 0 -42 -24 -39 -96 3
-72 0 -69 78 -100 60 -25 126 -87 153 -143 21 -44 22 -61 27 -412 l5 -365 37
-75 c83 -167 232 -259 420 -259 92 0 90 -3 86 135 l-3 90 -72 7 c-40 4 -86 14
-101 22 -42 22 -89 80 -101 123 -7 23 -11 160 -11 338 0 165 -5 327 -10 360
-17 102 -83 211 -163 271 -18 13 -19 17 -7 21 26 10 101 96 126 145 49 97 54
139 54 478 0 189 4 330 11 353 13 47 63 106 106 123 18 8 55 14 83 14 86 0 90
5 90 118 0 63 -4 102 -12 110 -18 18 -143 14 -213 -7z"/>
<path d="M3450 3841 c-11 -21 -14 -152 -4 -188 5 -20 13 -23 53 -23 74 0 122
-19 167 -64 25 -24 46 -58 53 -81 7 -25 11 -151 11 -340 0 -165 4 -326 10
-359 14 -89 61 -179 125 -242 31 -30 52 -54 46 -54 -22 0 -106 -99 -133 -156
-42 -90 -48 -148 -48 -479 0 -178 -4 -315 -11 -338 -12 -44 -59 -102 -101
-123 -16 -8 -60 -18 -98 -21 -79 -7 -80 -7 -80 -118 0 -117 -1 -115 94 -115
204 0 371 118 435 308 20 57 21 84 21 390 0 381 4 405 75 481 26 27 67 57 97
70 29 13 60 27 68 31 18 8 26 119 11 147 -5 10 -31 24 -57 32 -34 10 -65 31
-105 70 -87 85 -89 97 -89 491 0 289 -2 333 -18 382 -65 198 -231 318 -439
318 -61 0 -74 -3 -83 -19z"/>
<path d="M2723 3254 c-82 -84 -123 -132 -123 -147 0 -15 38 -60 115 -137 63
-63 115 -122 115 -132 0 -9 -65 -82 -145 -160 -115 -114 -145 -149 -145 -170
0 -21 21 -47 92 -115 170 -164 198 -193 198 -211 0 -9 -52 -69 -115 -132 -78
-78 -115 -122 -115 -137 0 -34 237 -273 270 -273 37 0 530 494 530 531 0 21
-34 61 -157 183 l-158 156 158 156 c125 124 157 161 157 183 0 21 -48 74 -253
279 -190 189 -259 252 -277 252 -17 0 -57 -34 -147 -126z"/>
<path d="M1838 2883 c-264 -265 -338 -343 -338 -363 0 -20 75 -100 343 -368
227 -227 349 -342 363 -342 26 0 244 219 244 246 0 12 -85 104 -215 234 -118
118 -215 219 -215 225 0 6 97 107 215 225 163 163 215 221 215 239 0 18 -29
54 -108 133 -87 87 -114 108 -137 108 -24 0 -79 -51 -367 -337z"/>
</g>
</svg>
