<?xml version="1.0" encoding="UTF-8" standalone="no"?>
<!DOCTYPE svg PUBLIC "-//W3C//DTD SVG 1.1//EN" "http://www.w3.org/Graphics/SVG/1.1/DTD/svg11.dtd">
<svg width="100%" height="100%" viewBox="0 0 295 77" version="1.1" xmlns="http://www.w3.org/2000/svg" xmlns:xlink="http://www.w3.org/1999/xlink" xml:space="preserve" xmlns:serif="http://www.serif.com/" style="fill-rule:evenodd;clip-rule:evenodd;stroke-linejoin:round;stroke-miterlimit:2;">
    <path d="M1.1,27.656C-0.367,26.189 -0.367,23.811 1.1,22.344L22.345,1.1C23.811,-0.367 26.189,-0.367 27.656,1.1L48.9,22.344C50.367,23.811 50.367,26.189 48.9,27.656L27.656,48.9C26.189,50.367 23.811,50.367 22.345,48.9L1.1,27.656Z" style="fill:rgb(69,173,229);fill-rule:nonzero;"/>
    <path d="M1.1,54.211C-0.367,52.745 -0.367,50.367 1.1,48.9L22.344,27.656C23.811,26.189 26.189,26.189 27.656,27.656L48.9,48.9C50.367,50.367 50.367,52.745 48.9,54.211L27.656,75.456C26.189,76.922 23.811,76.922 22.344,75.456L1.1,54.211Z" style="fill:rgb(0,83,128);fill-rule:nonzero;"/>
    <path d="M50,51.556L25,51.556L11.722,38.278L22.345,27.656C23.808,26.192 26.179,26.189 27.646,27.646L48.91,48.91C49.637,49.642 50,50.599 50,51.556Z" style="fill:rgb(0,114,175);fill-rule:nonzero;"/>
    <path d="M0,25C0,25.961 0.367,26.922 1.1,27.656L22.344,48.9C23.811,50.367 26.189,50.367 27.656,48.9L38.278,38.278L25,25L0,25Z" style="fill:rgb(0,114,175);fill-rule:nonzero;"/>
    <path d="M88.046,26.778C87.985,26.02 87.701,25.429 87.193,25.005C86.693,24.581 85.932,24.369 84.909,24.369C84.258,24.369 83.724,24.448 83.307,24.607C82.898,24.759 82.595,24.967 82.398,25.232C82.201,25.498 82.099,25.801 82.091,26.141C82.076,26.422 82.125,26.676 82.239,26.903C82.36,27.122 82.549,27.323 82.807,27.505C83.064,27.679 83.394,27.838 83.796,27.982C84.197,28.126 84.674,28.255 85.227,28.369L87.136,28.778C88.424,29.051 89.527,29.41 90.443,29.857C91.36,30.304 92.11,30.831 92.693,31.437C93.277,32.035 93.705,32.71 93.977,33.46C94.258,34.21 94.402,35.028 94.409,35.914C94.402,37.444 94.019,38.74 93.261,39.801C92.504,40.861 91.421,41.668 90.011,42.221C88.61,42.774 86.924,43.051 84.955,43.051C82.932,43.051 81.167,42.751 79.659,42.153C78.159,41.554 76.992,40.634 76.159,39.391C75.333,38.141 74.917,36.543 74.909,34.596L80.909,34.596C80.947,35.308 81.125,35.907 81.443,36.391C81.761,36.876 82.208,37.244 82.784,37.494C83.367,37.744 84.061,37.869 84.864,37.869C85.538,37.869 86.102,37.785 86.557,37.619C87.011,37.452 87.356,37.221 87.591,36.926C87.826,36.63 87.947,36.293 87.955,35.914C87.947,35.558 87.83,35.248 87.602,34.982C87.383,34.71 87.019,34.467 86.511,34.255C86.004,34.035 85.318,33.831 84.455,33.641L82.136,33.141C80.076,32.694 78.451,31.948 77.261,30.903C76.08,29.85 75.492,28.414 75.5,26.596C75.492,25.119 75.886,23.827 76.682,22.721C77.485,21.607 78.595,20.74 80.011,20.119C81.436,19.498 83.068,19.187 84.909,19.187C86.788,19.187 88.413,19.501 89.784,20.13C91.155,20.759 92.212,21.645 92.955,22.789C93.705,23.926 94.083,25.255 94.091,26.778L88.046,26.778ZM121.74,28.232L115.331,28.232C115.285,27.702 115.164,27.221 114.967,26.789C114.778,26.357 114.513,25.986 114.172,25.676C113.838,25.357 113.433,25.115 112.956,24.948C112.478,24.774 111.937,24.687 111.331,24.687C110.27,24.687 109.372,24.944 108.638,25.46C107.91,25.975 107.357,26.713 106.978,27.676C106.607,28.638 106.422,29.793 106.422,31.141C106.422,32.566 106.611,33.759 106.99,34.721C107.376,35.676 107.933,36.395 108.66,36.88C109.388,37.357 110.263,37.596 111.285,37.596C111.869,37.596 112.391,37.524 112.853,37.38C113.316,37.228 113.717,37.013 114.058,36.732C114.399,36.452 114.675,36.115 114.888,35.721C115.107,35.319 115.255,34.869 115.331,34.369L121.74,34.414C121.664,35.399 121.388,36.403 120.91,37.426C120.433,38.441 119.755,39.38 118.876,40.244C118.005,41.1 116.925,41.789 115.638,42.312C114.35,42.835 112.853,43.096 111.149,43.096C109.013,43.096 107.096,42.638 105.399,41.721C103.709,40.804 102.372,39.456 101.388,37.676C100.41,35.895 99.922,33.717 99.922,31.141C99.922,28.551 100.422,26.369 101.422,24.596C102.422,22.816 103.77,21.471 105.467,20.562C107.164,19.645 109.058,19.187 111.149,19.187C112.619,19.187 113.971,19.388 115.206,19.789C116.441,20.191 117.524,20.778 118.456,21.551C119.388,22.316 120.138,23.259 120.706,24.38C121.274,25.501 121.619,26.785 121.74,28.232ZM134.124,19.505L134.124,42.778L127.806,42.778L127.806,19.505L134.124,19.505ZM140.319,42.778L140.319,19.505L157.091,19.505L157.091,24.596L146.637,24.596L146.637,28.596L156.228,28.596L156.228,33.687L146.637,33.687L146.637,37.687L157.046,37.687L157.046,42.778L140.319,42.778ZM183.561,19.505L183.561,42.778L178.289,42.778L169.88,30.551L169.743,30.551L169.743,42.778L163.425,42.778L163.425,19.505L168.789,19.505L177.061,31.687L177.243,31.687L177.243,19.505L183.561,19.505ZM189.114,24.596L189.114,19.505L209.341,19.505L209.341,24.596L202.341,24.596L202.341,42.778L196.114,42.778L196.114,24.596L189.114,24.596ZM221.237,19.505L221.237,42.778L214.919,42.778L214.919,19.505L221.237,19.505ZM227.431,42.778L227.431,19.505L233.749,19.505L233.749,37.687L243.159,37.687L243.159,42.778L227.431,42.778ZM248.913,42.778L248.913,19.505L255.231,19.505L255.231,37.687L264.64,37.687L264.64,42.778L248.913,42.778ZM276.439,42.778L269.621,42.778L277.303,19.505L285.939,19.505L293.621,42.778L286.803,42.778L281.712,25.914L281.53,25.914L276.439,42.778ZM275.166,33.596L287.985,33.596L287.985,38.323L275.166,38.323L275.166,33.596Z" style="fill:rgb(46,53,64);fill-rule:nonzero;"/>
    <g transform="matrix(1.49112,0,0,1.49112,-36.6216,-26.2283)">
        <path d="M78.858,55.323C78.815,54.963 78.643,54.684 78.34,54.485C78.037,54.286 77.665,54.187 77.224,54.187C76.903,54.187 76.621,54.239 76.379,54.343C76.14,54.447 75.953,54.591 75.818,54.773C75.686,54.955 75.619,55.162 75.619,55.394C75.619,55.588 75.666,55.755 75.758,55.895C75.853,56.032 75.973,56.147 76.12,56.239C76.267,56.329 76.421,56.404 76.582,56.463C76.743,56.52 76.891,56.566 77.026,56.602L77.764,56.801C77.954,56.85 78.164,56.919 78.396,57.007C78.631,57.094 78.854,57.214 79.068,57.365C79.283,57.514 79.461,57.706 79.6,57.94C79.74,58.175 79.81,58.462 79.81,58.803C79.81,59.196 79.707,59.551 79.501,59.869C79.297,60.186 78.999,60.438 78.606,60.625C78.215,60.812 77.741,60.906 77.182,60.906C76.661,60.906 76.21,60.822 75.829,60.654C75.45,60.485 75.152,60.251 74.934,59.95C74.719,59.65 74.597,59.301 74.568,58.903L75.477,58.903C75.501,59.177 75.593,59.405 75.754,59.585C75.918,59.762 76.124,59.895 76.372,59.982C76.623,60.068 76.893,60.11 77.182,60.11C77.518,60.11 77.82,60.056 78.087,59.947C78.355,59.836 78.567,59.682 78.723,59.485C78.879,59.286 78.957,59.054 78.957,58.789C78.957,58.548 78.89,58.351 78.755,58.2C78.62,58.048 78.443,57.925 78.222,57.83C78.002,57.736 77.764,57.653 77.509,57.582L76.614,57.326C76.046,57.163 75.596,56.929 75.264,56.627C74.933,56.324 74.767,55.927 74.767,55.437C74.767,55.03 74.877,54.675 75.097,54.372C75.32,54.066 75.618,53.829 75.992,53.661C76.369,53.491 76.789,53.406 77.253,53.406C77.722,53.406 78.138,53.49 78.503,53.658C78.867,53.824 79.156,54.051 79.369,54.34C79.585,54.628 79.698,54.956 79.71,55.323L78.858,55.323ZM82.258,60.778L82.258,53.505L84.715,53.505C85.286,53.505 85.752,53.608 86.114,53.814C86.479,54.018 86.749,54.293 86.924,54.641C87.099,54.989 87.187,55.378 87.187,55.806C87.187,56.235 87.099,56.624 86.924,56.975C86.751,57.325 86.484,57.604 86.121,57.813C85.759,58.019 85.295,58.121 84.729,58.121L82.968,58.121L82.968,57.34L84.701,57.34C85.091,57.34 85.405,57.273 85.642,57.138C85.879,57.003 86.05,56.821 86.157,56.591C86.266,56.359 86.32,56.097 86.32,55.806C86.32,55.515 86.266,55.255 86.157,55.025C86.05,54.795 85.877,54.615 85.638,54.485C85.399,54.353 85.082,54.286 84.687,54.286L83.138,54.286L83.138,60.778L82.258,60.778ZM89.161,60.778L88.238,60.778L90.909,53.505L91.818,53.505L94.488,60.778L93.565,60.778L91.391,54.656L91.335,54.656L89.161,60.778ZM89.502,57.937L93.224,57.937L93.224,58.718L89.502,58.718L89.502,57.937ZM96.621,60.778L96.621,53.505L99.078,53.505C99.647,53.505 100.113,53.602 100.477,53.796C100.842,53.988 101.112,54.252 101.287,54.588C101.462,54.924 101.55,55.307 101.55,55.735C101.55,56.164 101.462,56.544 101.287,56.875C101.112,57.207 100.843,57.467 100.481,57.656C100.119,57.843 99.656,57.937 99.093,57.937L97.104,57.937L97.104,57.141L99.064,57.141C99.452,57.141 99.765,57.085 100.002,56.971C100.241,56.857 100.414,56.696 100.52,56.488C100.629,56.277 100.683,56.026 100.683,55.735C100.683,55.444 100.629,55.19 100.52,54.972C100.411,54.754 100.237,54.586 99.998,54.467C99.759,54.347 99.443,54.286 99.05,54.286L97.502,54.286L97.502,60.778L96.621,60.778ZM100.044,57.511L101.834,60.778L100.811,60.778L99.05,57.511L100.044,57.511ZM104.017,60.778L104.017,53.505L104.898,53.505L104.898,57.113L104.983,57.113L108.25,53.505L109.401,53.505L106.347,56.786L109.401,60.778L108.336,60.778L105.807,57.397L104.898,58.42L104.898,60.778L104.017,60.778ZM114.728,53.505L115.737,53.505L117.754,56.9L117.839,56.9L119.856,53.505L120.865,53.505L118.237,57.781L118.237,60.778L117.356,60.778L117.356,57.781L114.728,53.505ZM128.798,57.141C128.798,57.908 128.66,58.571 128.383,59.13C128.106,59.689 127.726,60.12 127.243,60.423C126.76,60.726 126.208,60.877 125.588,60.877C124.968,60.877 124.416,60.726 123.933,60.423C123.45,60.12 123.07,59.689 122.793,59.13C122.516,58.571 122.378,57.908 122.378,57.141C122.378,56.374 122.516,55.712 122.793,55.153C123.07,54.594 123.45,54.163 123.933,53.86C124.416,53.557 124.968,53.406 125.588,53.406C126.208,53.406 126.76,53.557 127.243,53.86C127.726,54.163 128.106,54.594 128.383,55.153C128.66,55.712 128.798,56.374 128.798,57.141ZM127.946,57.141C127.946,56.512 127.841,55.98 127.63,55.547C127.422,55.114 127.139,54.786 126.781,54.563C126.426,54.341 126.028,54.23 125.588,54.23C125.148,54.23 124.749,54.341 124.391,54.563C124.036,54.786 123.753,55.114 123.543,55.547C123.334,55.98 123.23,56.512 123.23,57.141C123.23,57.771 123.334,58.303 123.543,58.736C123.753,59.169 124.036,59.497 124.391,59.719C124.749,59.942 125.148,60.053 125.588,60.053C126.028,60.053 126.426,59.942 126.781,59.719C127.139,59.497 127.422,59.169 127.63,58.736C127.841,58.303 127.946,57.771 127.946,57.141ZM136.052,53.505L136.933,53.505L136.933,58.32C136.933,58.818 136.815,59.261 136.581,59.652C136.349,60.04 136.021,60.347 135.597,60.572C135.174,60.794 134.676,60.906 134.106,60.906C133.535,60.906 133.038,60.794 132.614,60.572C132.191,60.347 131.862,60.04 131.627,59.652C131.395,59.261 131.279,58.818 131.279,58.32L131.279,53.505L132.16,53.505L132.16,58.249C132.16,58.605 132.238,58.92 132.394,59.198C132.55,59.472 132.773,59.689 133.062,59.847C133.353,60.004 133.701,60.082 134.106,60.082C134.511,60.082 134.859,60.004 135.15,59.847C135.441,59.689 135.664,59.472 135.817,59.198C135.974,58.92 136.052,58.605 136.052,58.249L136.052,53.505ZM139.691,60.778L139.691,53.505L142.149,53.505C142.717,53.505 143.183,53.602 143.548,53.796C143.912,53.988 144.182,54.252 144.357,54.588C144.533,54.924 144.62,55.307 144.62,55.735C144.62,56.164 144.533,56.544 144.357,56.875C144.182,57.207 143.914,57.467 143.551,57.656C143.189,57.843 142.726,57.937 142.163,57.937L140.174,57.937L140.174,57.141L142.134,57.141C142.523,57.141 142.835,57.085 143.072,56.971C143.311,56.857 143.484,56.696 143.59,56.488C143.699,56.277 143.754,56.026 143.754,55.735C143.754,55.444 143.699,55.19 143.59,54.972C143.481,54.754 143.307,54.586 143.068,54.467C142.829,54.347 142.513,54.286 142.12,54.286L140.572,54.286L140.572,60.778L139.691,60.778ZM143.115,57.511L144.904,60.778L143.882,60.778L142.12,57.511L143.115,57.511ZM150.9,60.778L150.9,53.505L153.358,53.505C153.926,53.505 154.392,53.602 154.757,53.796C155.121,53.988 155.391,54.252 155.566,54.588C155.742,54.924 155.829,55.307 155.829,55.735C155.829,56.164 155.742,56.544 155.566,56.875C155.391,57.207 155.123,57.467 154.76,57.656C154.398,57.843 153.935,57.937 153.372,57.937L151.383,57.937L151.383,57.141L153.343,57.141C153.732,57.141 154.044,57.085 154.281,56.971C154.52,56.857 154.693,56.696 154.799,56.488C154.908,56.277 154.963,56.026 154.963,55.735C154.963,55.444 154.908,55.19 154.799,54.972C154.69,54.754 154.516,54.586 154.277,54.467C154.038,54.347 153.722,54.286 153.329,54.286L151.781,54.286L151.781,60.778L150.9,60.778ZM154.324,57.511L156.113,60.778L155.091,60.778L153.329,57.511L154.324,57.511ZM158.297,60.778L158.297,53.505L162.686,53.505L162.686,54.286L159.177,54.286L159.177,56.744L162.459,56.744L162.459,57.525L159.177,57.525L159.177,59.996L162.743,59.996L162.743,60.778L158.297,60.778ZM169.251,55.323C169.208,54.963 169.035,54.684 168.732,54.485C168.429,54.286 168.057,54.187 167.617,54.187C167.295,54.187 167.013,54.239 166.772,54.343C166.533,54.447 166.346,54.591 166.211,54.773C166.078,54.955 166.012,55.162 166.012,55.394C166.012,55.588 166.058,55.755 166.15,55.895C166.245,56.032 166.366,56.147 166.513,56.239C166.659,56.329 166.813,56.404 166.974,56.463C167.135,56.52 167.283,56.566 167.418,56.602L168.157,56.801C168.346,56.85 168.557,56.919 168.789,57.007C169.023,57.094 169.247,57.214 169.46,57.365C169.675,57.514 169.853,57.706 169.993,57.94C170.132,58.175 170.202,58.462 170.202,58.803C170.202,59.196 170.099,59.551 169.893,59.869C169.69,60.186 169.391,60.438 168.998,60.625C168.608,60.812 168.133,60.906 167.574,60.906C167.054,60.906 166.603,60.822 166.221,60.654C165.843,60.485 165.544,60.251 165.327,59.95C165.111,59.65 164.989,59.301 164.961,58.903L165.87,58.903C165.894,59.177 165.986,59.405 166.147,59.585C166.31,59.762 166.516,59.895 166.765,59.982C167.016,60.068 167.286,60.11 167.574,60.11C167.911,60.11 168.212,60.056 168.48,59.947C168.747,59.836 168.959,59.682 169.116,59.485C169.272,59.286 169.35,59.054 169.35,58.789C169.35,58.548 169.282,58.351 169.148,58.2C169.013,58.048 168.835,57.925 168.615,57.83C168.395,57.736 168.157,57.653 167.901,57.582L167.006,57.326C166.438,57.163 165.988,56.929 165.657,56.627C165.325,56.324 165.16,55.927 165.16,55.437C165.16,55.03 165.27,54.675 165.49,54.372C165.712,54.066 166.011,53.829 166.385,53.661C166.761,53.491 167.181,53.406 167.645,53.406C168.114,53.406 168.531,53.49 168.895,53.658C169.26,53.824 169.549,54.051 169.762,54.34C169.977,54.628 170.091,54.956 170.103,55.323L169.251,55.323ZM172.65,60.778L172.65,53.505L177.039,53.505L177.039,54.286L173.531,54.286L173.531,56.744L176.812,56.744L176.812,57.525L173.531,57.525L173.531,59.996L177.096,59.996L177.096,60.778L172.65,60.778ZM179.925,60.778L179.002,60.778L181.672,53.505L182.581,53.505L185.252,60.778L184.328,60.778L182.155,54.656L182.098,54.656L179.925,60.778ZM180.266,57.937L183.988,57.937L183.988,58.718L180.266,58.718L180.266,57.937ZM187.385,60.778L187.385,53.505L189.842,53.505C190.41,53.505 190.877,53.602 191.241,53.796C191.606,53.988 191.876,54.252 192.051,54.588C192.226,54.924 192.314,55.307 192.314,55.735C192.314,56.164 192.226,56.544 192.051,56.875C191.876,57.207 191.607,57.467 191.245,57.656C190.882,57.843 190.42,57.937 189.856,57.937L187.868,57.937L187.868,57.141L189.828,57.141C190.216,57.141 190.529,57.085 190.765,56.971C191.004,56.857 191.177,56.696 191.284,56.488C191.393,56.277 191.447,56.026 191.447,55.735C191.447,55.444 191.393,55.19 191.284,54.972C191.175,54.754 191.001,54.586 190.762,54.467C190.523,54.347 190.207,54.286 189.814,54.286L188.265,54.286L188.265,60.778L187.385,60.778ZM190.808,57.511L192.598,60.778L191.575,60.778L189.814,57.511L190.808,57.511ZM200.633,55.778L199.753,55.778C199.701,55.525 199.609,55.302 199.479,55.11C199.351,54.918 199.195,54.757 199.01,54.627C198.828,54.495 198.626,54.395 198.403,54.329C198.181,54.263 197.949,54.23 197.707,54.23C197.267,54.23 196.868,54.341 196.51,54.563C196.155,54.786 195.872,55.114 195.662,55.547C195.453,55.98 195.349,56.512 195.349,57.141C195.349,57.771 195.453,58.303 195.662,58.736C195.872,59.169 196.155,59.497 196.51,59.719C196.868,59.942 197.267,60.053 197.707,60.053C197.949,60.053 198.181,60.02 198.403,59.954C198.626,59.888 198.828,59.789 199.01,59.659C199.195,59.527 199.351,59.364 199.479,59.173C199.609,58.978 199.701,58.756 199.753,58.505L200.633,58.505C200.567,58.877 200.446,59.209 200.271,59.503C200.096,59.797 199.878,60.046 199.618,60.252C199.357,60.456 199.065,60.611 198.741,60.717C198.419,60.824 198.074,60.877 197.707,60.877C197.087,60.877 196.535,60.726 196.052,60.423C195.569,60.12 195.189,59.689 194.912,59.13C194.635,58.571 194.497,57.908 194.497,57.141C194.497,56.374 194.635,55.712 194.912,55.153C195.189,54.594 195.569,54.163 196.052,53.86C196.535,53.557 197.087,53.406 197.707,53.406C198.074,53.406 198.419,53.459 198.741,53.565C199.065,53.672 199.357,53.828 199.618,54.034C199.878,54.238 200.096,54.486 200.271,54.78C200.446,55.071 200.567,55.404 200.633,55.778ZM203.056,60.778L203.056,53.505L203.937,53.505L203.937,56.744L207.815,56.744L207.815,53.505L208.696,53.505L208.696,60.778L207.815,60.778L207.815,57.525L203.937,57.525L203.937,60.778L203.056,60.778Z" style="fill:rgb(128,149,178);fill-rule:nonzero;"/>
    </g>
</svg>
